<svg xmlns="http://www.w3.org/2000/svg" viewBox="0 0 1280 720" font-family="ui-monospace, SFMono-Regular, Menlo, monospace" font-size="13">
  <style>
    .bg     { fill: #ffffff; }
    .panel  { fill: #ffffff; stroke: #ececec; stroke-width: 1; }
    .focus  { stroke: #2563eb; stroke-width: 1; fill: none; }
    .border { stroke: #ececec; stroke-width: 1; fill: none; }
    .dim    { fill: #b5b5b5; }
    .fg     { fill: #1a1a1a; }
    .muted  { fill: #999999; }
    .blue   { fill: #2563eb; }
    .green  { fill: #15803d; }
    .yellow { fill: #b45309; }
    .red    { fill: #dc2626; }
    .magenta{ fill: #9333ea; }
    .cyan   { fill: #0891b2; }
    .me     { fill: #15803d; }
    .header { fill: #999999; font-weight: 600; letter-spacing: 0.5px; }
    .titleb { font-weight: 600; }
    .bold   { font-weight: 700; }
    .ital   { font-style: italic; }
    .under  { text-decoration: underline; }
    .codebg { fill: #f5f5f5; }
    .codefg { fill: #b45309; }
    .pillm  { fill: #ffffff; font-weight: 600; }
    .pillbg-mention { fill: #2563eb; }
    .pillbg-bcast   { fill: #dc2626; }
    .pillbg-react   { fill: #f0f0f0; }
    .pillrf { fill: #1a1a1a; font-weight: 600; }
    .barbg-red    { fill: #ef4444; }
    .cardbar      { fill: #2563eb; }
    .activerow    { fill: #dbeafe; }
  </style>

  <rect class="bg" width="1280" height="720"/>

  <rect x="0" y="0" width="1280" height="22" fill="#fafafa"/>
  <circle cx="14" cy="11" r="5" fill="#dc2626"/>
  <circle cx="32" cy="11" r="5" fill="#f59e0b"/>
  <circle cx="50" cy="11" r="5" fill="#15803d"/>
  <text x="640" y="15" text-anchor="middle" class="dim">slack — rust TUI client (superlight)</text>

  <rect class="panel" x="8" y="30" width="250" height="680"/>
  <text x="20" y="50" class="header">CHATS</text>

  <!-- Threads section -->
  <text x="20" y="74" class="muted">▾ Threads</text>
  <rect x="14" y="82" width="238" height="18" class="barbg-red"/>
  <text x="32" y="95" class="pillm">↳ #book-club · 21:14 (1)</text>
  <text x="32" y="115" class="fg">↳ #recipes · 19:42</text>
  <text x="32" y="133" class="fg">↳ marina · 18:05</text>

  <text x="20" y="160" class="muted">▾ New</text>
  <rect x="14" y="168" width="238" height="18" class="barbg-red"/>
  <text x="32" y="181" class="pillm">  marina (2)</text>

  <!-- Public — book-club active -->
  <text x="20" y="208" class="muted">▾ Public Channels</text>
  <rect x="14" y="216" width="238" height="18" class="activerow"/>
  <text x="32" y="229" class="fg titleb">  # book-club</text>
  <text x="32" y="249" class="fg"># recipes</text>
  <text x="32" y="267" class="fg"># travel</text>
  <text x="32" y="285" class="fg"># music</text>

  <text x="20" y="313" class="muted">▾ Private Channels</text>
  <text x="32" y="331" class="fg">🔒 family</text>

  <text x="20" y="359" class="muted">▾ DMs</text>
  <text x="32" y="377" class="fg">👤 marina</text>
  <text x="32" y="395" class="fg">👤 sam</text>
  <text x="32" y="413" class="fg">👤 yuki</text>

  <text x="20" y="441" class="muted">▾ Group Chats</text>
  <text x="32" y="459" class="fg">👥 weekend-trip</text>

  <text x="20" y="487" class="muted">▾ Bots &amp; Apps</text>
  <text x="32" y="505" class="fg">🤖 reminders</text>

  <!-- ===== TOP LEFT: # book-club (focused) ===== -->
  <rect class="panel" x="266" y="30" width="502" height="336"/>
  <rect class="focus" x="266.5" y="30.5" width="501" height="335"/>
  <text x="280" y="50" class="blue titleb"># book-club</text>
  <text x="754" y="50" text-anchor="end" class="dim">live</text>

  <text x="280" y="76" class="dim">[20:55]</text>
  <text x="332" y="76" class="cyan titleb">marina</text>
  <text x="408" y="76" class="fg">just finished</text>
  <text x="500" y="76" class="bold fg">_Piranesi_</text>
  <text x="572" y="76" class="fg">— wow</text>

  <text x="280" y="104" class="dim">[21:02]</text>
  <text x="332" y="104" class="magenta titleb">sam</text>
  <text x="408" y="104" class="fg">Susanna Clarke is on a different</text>
  <text x="408" y="120" class="fg">level. The </text>
  <text x="488" y="120" class="bold fg">house</text>
  <text x="528" y="120" class="fg"> as a character…</text>

  <text x="280" y="144" class="dim">[21:08]</text>
  <text x="332" y="144" class="yellow titleb">yuki</text>
  <text x="408" y="144" class="fg">if you liked it, try</text>
  <text x="544" y="144" class="cyan under">_The Buried Giant_</text>

  <text x="280" y="172" class="dim">[21:12]</text>
  <text x="332" y="172" class="me titleb">stefan</text>
  <rect x="408" y="159" width="80" height="18" class="pillbg-mention"/>
  <text x="412" y="172" class="pillm">@marina</text>
  <text x="494" y="172" class="fg">you'd love</text>
  <text x="572" y="172" class="bold fg">_Mona Awad_</text>

  <text x="280" y="200" class="dim">[21:14]</text>
  <text x="332" y="200" class="cyan titleb">marina</text>
  <text x="408" y="200" class="fg">noted! adding to the pile</text>

  <!-- reaction badges -->
  <rect x="408" y="212" width="40" height="16" class="pillbg-react" rx="2"/>
  <text x="412" y="224" class="pillrf">📚 4</text>
  <rect x="452" y="212" width="40" height="16" class="pillbg-react" rx="2"/>
  <text x="456" y="224" class="pillrf">✨ 2</text>

  <!-- attachment card -->
  <rect x="408" y="240" width="6" height="68" class="cardbar"/>
  <text x="422" y="252" class="bold fg">@goodreads · Bunny — Mona Awad</text>
  <text x="422" y="270" class="muted ital">"the most fun you'll have being unsettled"</text>
  <text x="422" y="288" class="fg">★★★★☆ — 38k ratings</text>
  <text x="422" y="304" class="dim">— goodreads.com/bunny</text>

  <line class="border" x1="275" y1="328" x2="760" y2="328"/>
  <text x="280" y="350" class="dim">›</text>
  <text x="294" y="350" class="fg">type a message…</text>

  <!-- ===== TOP RIGHT: # recipes ===== -->
  <rect class="panel" x="772" y="30" width="500" height="336"/>
  <text x="786" y="50" class="cyan titleb"># recipes</text>
  <text x="1258" y="50" text-anchor="end" class="dim">live</text>

  <text x="786" y="76" class="dim">[19:32]</text>
  <text x="838" y="76" class="magenta titleb">sam</text>
  <text x="900" y="76" class="fg">tonight: miso-glazed eggplant 🍆</text>

  <!-- code block (recipe) -->
  <rect x="900" y="90" width="350" height="98" class="codebg"/>
  <text x="908" y="106" class="codefg">▸ 2 large eggplants, halved</text>
  <text x="908" y="122" class="codefg">▸ 3 tbsp white miso</text>
  <text x="908" y="138" class="codefg">▸ 2 tbsp mirin</text>
  <text x="908" y="154" class="codefg">▸ 1 tbsp sugar</text>
  <text x="908" y="170" class="codefg">→ broil 10 min, cut-side up</text>

  <text x="786" y="208" class="dim">[19:42]</text>
  <text x="838" y="208" class="cyan titleb">yuki</text>
  <text x="900" y="208" class="fg">add a splash of</text>
  <text x="1008" y="208" class="bold fg">_sake_</text>
  <text x="1042" y="208" class="fg">to the glaze</text>

  <text x="786" y="236" class="dim">[19:55]</text>
  <text x="838" y="236" class="me titleb">stefan</text>
  <text x="900" y="236" class="fg">making it. recipe link:</text>
  <text x="900" y="252" class="cyan under">https://nyt.cooking/miso-eggplant</text>

  <!-- reaction -->
  <rect x="900" y="266" width="44" height="16" class="pillbg-react" rx="2"/>
  <text x="904" y="278" class="pillrf">🍆 6</text>
  <rect x="948" y="266" width="40" height="16" class="pillbg-react" rx="2"/>
  <text x="952" y="278" class="pillrf">😋 3</text>

  <text x="786" y="312" class="muted ital">↳ 4 replies · last 19:42</text>

  <line class="border" x1="781" y1="328" x2="1264" y2="328"/>
  <text x="786" y="350" class="dim">›</text>
  <text x="800" y="350" class="fg">type a message…</text>

  <!-- ===== BOTTOM LEFT: thread on book-club ===== -->
  <rect class="panel" x="266" y="372" width="502" height="334"/>
  <text x="280" y="392" class="blue titleb">↳ thread · # book-club / 20:55</text>
  <text x="754" y="392" text-anchor="end" class="dim">3 replies</text>

  <text x="280" y="418" class="dim">[21:00]</text>
  <text x="332" y="418" class="magenta titleb">sam</text>
  <text x="408" y="418" class="fg">favourite passage?</text>

  <!-- blockquote -->
  <text x="280" y="446" class="dim">[21:04]</text>
  <text x="332" y="446" class="cyan titleb">marina</text>
  <text x="408" y="446" class="cyan">▎</text>
  <text x="424" y="446" class="muted ital">"the beauty of the house is</text>
  <text x="408" y="462" class="cyan">▎</text>
  <text x="424" y="462" class="muted ital">immeasurable; its kindness infinite"</text>

  <text x="280" y="492" class="dim">[21:09]</text>
  <text x="332" y="492" class="yellow titleb">yuki</text>
  <text x="408" y="492" class="fg">that one stayed with me too</text>

  <text x="280" y="524" class="dim">[21:14]</text>
  <text x="332" y="524" class="me titleb">stefan</text>
  <text x="408" y="524" class="fg">whole book is a</text>
  <text x="514" y="524" class="bold fg">prayer</text>

  <text x="280" y="556" class="muted ital">— end of thread —</text>

  <line class="border" x1="275" y1="666" x2="760" y2="666"/>
  <text x="280" y="688" class="dim">›</text>
  <text x="294" y="688" class="fg">reply in thread…</text>

  <!-- ===== BOTTOM RIGHT: DM marina + Giphy ===== -->
  <rect class="panel" x="772" y="372" width="500" height="334"/>
  <text x="786" y="392" class="blue titleb">👤 marina</text>
  <text x="1258" y="392" text-anchor="end" class="dim">DM</text>

  <text x="786" y="418" class="dim">[18:00]</text>
  <text x="838" y="418" class="cyan titleb">marina</text>
  <text x="906" y="418" class="fg">finished the book in one sitting</text>

  <text x="786" y="442" class="dim">[18:02]</text>
  <text x="838" y="442" class="me titleb">stefan</text>
  <text x="906" y="442" class="fg">what! that's like 250 pages</text>

  <text x="786" y="466" class="dim">[18:05]</text>
  <text x="838" y="466" class="cyan titleb">marina</text>
  <text x="906" y="466" class="cyan under">https://giphy.com/reading.gif</text>

  <!-- inline GIF preview -->
  <rect x="906" y="476" width="280" height="160" fill="#fafafa" stroke="#2563eb" stroke-width="1"/>
  <text x="1046" y="556" text-anchor="middle" class="dim">[ animated gif · 280×160 ]</text>
  <text x="1046" y="574" text-anchor="middle" class="dim ital">(Kitty graphics protocol)</text>

  <line class="border" x1="781" y1="666" x2="1264" y2="666"/>
  <text x="786" y="688" class="dim">›</text>
  <text x="800" y="688" class="fg">type a message…</text>

  <text x="14"  y="715" class="muted">RT ok 1s</text>
  <text x="160" y="715" class="red titleb">Mentions: personal: 2@ (Ctrl+N)</text>
  <text x="1266" y="715" text-anchor="end" class="dim">Ctrl+Q quit · Ctrl+V/B split · Ctrl+U colors</text>
</svg>
